<?xml version="1.0" standalone="no"?>
<!DOCTYPE svg PUBLIC "-//W3C//DTD SVG 20010904//EN"
 "http://www.w3.org/TR/2001/REC-SVG-20010904/DTD/svg10.dtd">
<svg version="1.0" xmlns="http://www.w3.org/2000/svg"
 width="380.000000pt" height="380.000000pt" viewBox="0 0 380.000000 380.000000"
 preserveAspectRatio="xMidYMid meet">

<g transform="translate(0.000000,380.000000) scale(0.100000,-0.100000)"
fill="#000000" stroke="none">
<path d="M1653 3466 c-73 -23 -297 -177 -443 -305 -401 -351 -559 -591 -632
-956 -27 -133 -29 -362 -4 -490 67 -346 247 -638 521 -846 194 -147 464 -250
696 -265 l97 -7 6 -71 c12 -122 37 -202 67 -211 47 -15 376 183 594 359 323
260 502 487 608 771 60 160 97 363 97 523 -1 352 -149 703 -401 950 -237 232
-542 366 -884 388 l-106 7 -44 68 c-41 63 -85 100 -117 98 -7 0 -32 -6 -55
-13z m65 -143 c21 -32 51 -103 77 -180 15 -49 22 -56 98 -106 45 -29 105 -76
134 -104 l51 -50 119 -6 c143 -7 163 -12 163 -41 0 -33 -42 -150 -88 -246 -95
-197 -222 -347 -344 -405 -40 -19 -82 -35 -95 -35 -12 0 -25 -5 -29 -12 -15
-24 156 -2 274 36 127 40 147 42 198 21 69 -29 82 -133 25 -212 -61 -84 -176
-119 -441 -133 -234 -12 -314 -33 -388 -104 -45 -42 -62 -77 -62 -126 0 -124
88 -160 250 -100 104 38 198 53 283 45 38 -4 66 -10 62 -13 -3 -3 -36 -15 -74
-27 -209 -66 -372 -279 -467 -609 -18 -63 -33 -96 -42 -96 -8 0 -50 19 -95 42
-281 147 -509 423 -601 730 -40 134 -50 204 -50 363 0 266 74 502 222 710 147
208 479 511 712 652 67 40 83 41 108 6z m427 -2039 c13 -9 30 -31 36 -49 10
-28 19 -34 52 -39 55 -9 120 -73 115 -113 -4 -37 -35 -43 -47 -10 -19 48 -83
81 -118 59 -6 -4 -13 -28 -15 -52 -4 -61 -29 -64 -87 -11 -37 34 -41 42 -32
60 7 12 23 21 43 23 35 3 44 21 34 63 -6 25 -29 37 -83 43 -20 3 -15 40 5 45
26 8 69 -1 97 -19z m-250 -38 c40 -17 68 -56 63 -88 -4 -34 -44 -37 -59 -5
-11 23 -31 38 -71 51 -10 3 -18 14 -18 25 0 17 12 25 43 30 4 0 23 -5 42 -13z
m379 -300 c44 -18 66 -51 66 -98 0 -34 -3 -38 -25 -38 -15 0 -25 6 -25 14 0
24 -35 58 -71 70 -40 13 -44 35 -9 53 31 16 24 16 64 -1z"/>
<path d="M1424 2856 c-14 -56 47 -126 110 -126 67 0 77 39 16 63 -26 10 -47
28 -61 51 -24 42 -56 48 -65 12z"/>
<path d="M1615 2636 c-13 -9 -17 -21 -12 -42 8 -41 -6 -58 -47 -58 -40 0 -86
35 -86 66 0 26 -30 35 -45 14 -36 -49 51 -145 133 -146 10 0 24 -17 35 -40 22
-48 64 -72 115 -68 29 2 37 7 37 23 0 15 -8 21 -34 25 -44 6 -76 47 -67 84 5
19 13 26 30 26 62 0 75 38 29 82 -44 40 -67 49 -88 34z"/>
<path d="M1835 2534 c-46 -46 59 -153 122 -125 34 16 30 46 -9 57 -20 6 -41
23 -53 41 -25 40 -40 46 -60 27z"/>
</g>
</svg>
